<?xml version="1.0" encoding="utf-8"?>
<!-- Generator: Adobe Illustrator 25.2.0, SVG Export Plug-In . SVG Version: 6.00 Build 0)  -->
<svg version="1.1" id="Capa_1" xmlns="http://www.w3.org/2000/svg" xmlns:xlink="http://www.w3.org/1999/xlink" x="0px" y="0px"
	 viewBox="0 0 92.6 41.5" style="enable-background:new 0 0 92.6 41.5;" xml:space="preserve">
<style type="text/css">
	.st0{fill:#23285A;}
</style>
<g>
	<path class="st0" d="M17.3,27.9h-1.7v-1.9c0-1.3,1.1-2.3,2.3-2.3h7.7c1.3,0,2.3,1.1,2.3,2.3v1.9h-1.7v-2.5h-8.9V27.9z"/>
	<g>
		<path class="st0" d="M21.7,14.7c-2.1,0-3.8,1.7-3.8,3.8c0,2.1,1.7,3.8,3.8,3.8c2.1,0,3.8-1.7,3.8-3.8
			C25.5,16.4,23.8,14.7,21.7,14.7z M21.7,20.5c-1.1,0-2.1-0.9-2.1-2.1c0-1.1,0.9-2.1,2.1-2.1c1.2,0,2.1,0.9,2.1,2.1
			C23.8,19.6,22.8,20.5,21.7,20.5z"/>
	</g>
	<polyline class="st0" points="33.4,10.6 31.6,10.6 31.6,30.3 15.6,30.3 15.6,32.1 33.4,32.1 	"/>
	<polygon class="st0" points="27.9,10.6 10.1,10.6 10.1,32.1 11.9,32.1 11.9,12.4 28,12.4 28,10.6 	"/>
	<path class="st0" d="M88.6,37.9L4.4,37.9l0-33l84.3,0.1L88.6,37.9z M5.2,37.1l82.7,0.1l0-31.4L5.2,5.7L5.2,37.1z"/>
	<g>
		<path class="st0" d="M44,13.7c0.4,0.6,0.7,1.3,0.7,2.2c0,0.9-0.2,1.6-0.7,2.2c-0.4,0.6-1.1,0.9-2,0.9c-1,0-1.7-0.4-2.1-1.1v0.9
			h-1.4v-8.1h1.4v3.2c0.4-0.7,1.1-1.1,2.1-1.1C42.9,12.8,43.5,13.1,44,13.7z M42.8,17.4c0.2-0.3,0.4-0.8,0.4-1.5
			c0-0.7-0.1-1.2-0.4-1.5c-0.2-0.3-0.7-0.5-1.3-0.5c-0.6,0-1,0.2-1.3,0.5c-0.3,0.3-0.4,0.8-0.4,1.5c0,0.7,0.1,1.1,0.4,1.5
			c0.3,0.3,0.7,0.5,1.3,0.5C42.2,17.8,42.6,17.7,42.8,17.4z"/>
		<path class="st0" d="M49.4,12.9v1.4H49c-0.6,0-1.1,0.2-1.3,0.5c-0.3,0.4-0.4,0.9-0.4,1.7v2.2h-1.4V13h1.4v1.3c0.3-1,1-1.4,1.9-1.4
			H49.4z"/>
		<path class="st0" d="M53.2,11.1v1.1H49v-1.1H53.2z M51.7,13v5.8h-1.4V13H51.7z"/>
		<path class="st0" d="M59,13v5.6c0,0.9-0.2,1.5-0.7,1.9c-0.5,0.4-1.3,0.6-2.4,0.6c-0.9,0-1.6-0.2-2.1-0.6c-0.5-0.4-0.8-0.9-0.8-1.6
			h1.4c0.1,0.7,0.6,1.1,1.6,1.1c0.6,0,1-0.1,1.2-0.3c0.3-0.2,0.4-0.6,0.4-1.1v-1.1c-0.4,0.6-1.1,1-2,1c-0.9,0-1.6-0.3-2-0.8
			c-0.5-0.5-0.7-1.2-0.7-2.1c0-0.9,0.2-1.6,0.7-2.1c0.5-0.5,1.1-0.8,2-0.8c1,0,1.6,0.3,2,1V13H59z M57.2,17.1
			c0.3-0.3,0.4-0.7,0.4-1.4c0-0.6-0.1-1.1-0.4-1.4c-0.3-0.3-0.7-0.4-1.2-0.4c-0.6,0-1,0.1-1.3,0.4c-0.3,0.3-0.4,0.7-0.4,1.4
			c0,0.7,0.1,1.1,0.4,1.4c0.3,0.3,0.7,0.4,1.3,0.4C56.5,17.5,56.9,17.4,57.2,17.1z"/>
		<path class="st0" d="M65.5,13.4c0.3,0.4,0.5,1,0.5,1.8v3.6h-1.4v-3.4c0-0.5-0.1-0.9-0.3-1.1c-0.2-0.2-0.5-0.3-0.9-0.3
			c-0.5,0-0.9,0.2-1.2,0.5c-0.3,0.4-0.4,0.9-0.4,1.7v2.5h-1.4v-8.1h1.4v3.5c0.4-0.9,1.1-1.4,2.1-1.4C64.7,12.8,65.2,13,65.5,13.4z"
			/>
		<path class="st0" d="M68.6,18.6c-0.3-0.1-0.5-0.3-0.6-0.6c-0.1-0.3-0.2-0.6-0.2-1.1v-2.8h-1.1v-0.7l1.2-0.4l0.6-1.3h0.7V13H71v1.1
			h-1.8v3.5h1.6v1.1h-1.1C69.3,18.8,68.9,18.7,68.6,18.6z"/>
		<path class="st0" d="M76.1,17h1.3c-0.1,0.5-0.3,1-0.8,1.4c-0.5,0.4-1.1,0.6-2.1,0.6c-1,0-1.8-0.3-2.3-0.9
			c-0.5-0.6-0.7-1.3-0.7-2.2c0-0.6,0.1-1.1,0.3-1.6c0.2-0.5,0.6-0.8,1-1.1c0.4-0.3,1-0.4,1.7-0.4c0.6,0,1.2,0.1,1.6,0.4
			c0.4,0.3,0.8,0.6,1,1.1c0.2,0.4,0.3,1,0.3,1.5c0,0.2,0,0.3,0,0.4H73c0,0.6,0.2,1,0.5,1.3c0.3,0.3,0.7,0.4,1.2,0.4
			C75.4,17.9,75.9,17.6,76.1,17z M73.5,14.2c-0.3,0.2-0.4,0.6-0.5,1.2h3.1c-0.1-1-0.6-1.5-1.5-1.5C74.1,13.8,73.8,13.9,73.5,14.2z"
			/>
		<path class="st0" d="M82.1,12.9v1.4h-0.4c-0.6,0-1.1,0.2-1.3,0.5c-0.3,0.4-0.4,0.9-0.4,1.7v2.2h-1.4V13h1.4v1.3
			c0.3-1,1-1.4,1.9-1.4H82.1z"/>
		<path class="st0" d="M44.6,30.5c0,0.3,0,0.5,0,0.7c0,0.2,0.1,0.4,0.1,0.6h-1.5c-0.1-0.3-0.1-0.7-0.1-1.3V30c0-0.9-0.5-1.4-1.4-1.4
			h-1.8v3.1h-1.5v-7.7h3.9c0.8,0,1.4,0.2,1.9,0.6c0.4,0.4,0.6,0.9,0.6,1.5c0,0.5-0.1,0.9-0.4,1.3c-0.3,0.3-0.7,0.6-1.1,0.7
			c0.4,0.1,0.8,0.3,1,0.5c0.2,0.2,0.3,0.6,0.3,1.1V30.5z M43,27.3c0.2-0.2,0.3-0.5,0.3-0.9c0-0.7-0.4-1.1-1.2-1.1h-2.1v2.3h2.2
			C42.5,27.6,42.8,27.5,43,27.3z"/>
		<path class="st0" d="M50.2,30.1h1.3c-0.1,0.5-0.3,1-0.8,1.4c-0.5,0.4-1.1,0.6-2.1,0.6c-1,0-1.8-0.3-2.3-0.9
			c-0.5-0.6-0.7-1.3-0.7-2.2c0-0.6,0.1-1.1,0.3-1.6c0.2-0.5,0.6-0.8,1-1.1c0.4-0.3,1-0.4,1.7-0.4c0.6,0,1.2,0.1,1.6,0.4
			c0.4,0.3,0.8,0.6,1,1.1s0.3,1,0.3,1.5c0,0.2,0,0.3,0,0.4h-4.5c0,0.6,0.2,1,0.5,1.3c0.3,0.3,0.7,0.4,1.2,0.4
			C49.5,31,50,30.7,50.2,30.1z M47.6,27.2c-0.3,0.2-0.4,0.6-0.5,1.2h3.1c-0.1-1-0.6-1.5-1.5-1.5C48.2,26.9,47.9,27,47.6,27.2z"/>
		<path class="st0" d="M58.6,23.7v8.1h-1.4v-0.9c-0.4,0.7-1.1,1.1-2.1,1.1c-0.9,0-1.6-0.3-2-0.9c-0.4-0.6-0.7-1.3-0.7-2.2
			c0-0.9,0.2-1.6,0.7-2.2c0.4-0.6,1.1-0.9,2-0.9c1,0,1.7,0.4,2.1,1.1v-3.2H58.6z M56.8,30.4c0.3-0.3,0.4-0.8,0.4-1.5
			c0-0.7-0.1-1.1-0.4-1.5c-0.3-0.3-0.7-0.5-1.3-0.5c-0.6,0-1,0.2-1.2,0.5c-0.2,0.3-0.4,0.8-0.4,1.5c0,0.7,0.1,1.2,0.4,1.5
			c0.2,0.3,0.7,0.5,1.2,0.5C56.1,30.9,56.5,30.7,56.8,30.4z"/>
		<path class="st0" d="M60.4,31.5c-0.3-0.3-0.5-0.7-0.5-1.2c0-0.5,0.1-0.9,0.4-1.2c0.3-0.3,0.7-0.5,1.4-0.6l1.4-0.2
			c0.3,0,0.5-0.1,0.6-0.2c0.1-0.1,0.2-0.2,0.2-0.4c0-0.2-0.1-0.4-0.3-0.6c-0.2-0.1-0.5-0.2-0.9-0.2c-0.8,0-1.3,0.3-1.3,1H60
			c0-0.6,0.3-1.1,0.7-1.5c0.5-0.4,1.1-0.5,2-0.5c0.8,0,1.4,0.2,1.9,0.5c0.4,0.3,0.6,0.8,0.6,1.4v2.7c0,0.4,0,0.9,0.1,1.4H64
			c0-0.4-0.1-0.8-0.1-1.3c-0.1,0.4-0.4,0.8-0.7,1c-0.4,0.3-0.8,0.4-1.4,0.4C61.2,32,60.7,31.8,60.4,31.5z M63.4,30.4
			c0.3-0.3,0.4-0.8,0.4-1.4v-0.3c-0.1,0.1-0.3,0.2-0.4,0.2c-0.1,0.1-0.3,0.1-0.6,0.2l-0.6,0.1c-0.3,0.1-0.6,0.2-0.7,0.3
			c-0.1,0.1-0.2,0.3-0.2,0.6c0,0.2,0.1,0.4,0.2,0.6c0.2,0.1,0.4,0.2,0.7,0.2C62.7,30.9,63.1,30.8,63.4,30.4z"/>
		<path class="st0" d="M66.5,27.4c0.2-0.5,0.6-0.8,1-1.1c0.5-0.3,1-0.4,1.7-0.4c0.9,0,1.6,0.2,2.1,0.7c0.5,0.4,0.8,1,0.8,1.8h-1.4
			c0-0.4-0.2-0.7-0.4-1c-0.2-0.2-0.6-0.4-1.1-0.4c-0.5,0-0.9,0.1-1.2,0.4c-0.3,0.3-0.4,0.8-0.4,1.5c0,0.7,0.1,1.2,0.4,1.5
			c0.3,0.3,0.7,0.4,1.2,0.4c0.5,0,0.8-0.1,1.1-0.4c0.3-0.2,0.4-0.6,0.5-1h1.4c0,0.5-0.1,0.9-0.4,1.2c-0.2,0.4-0.6,0.7-1,0.9
			c-0.4,0.2-1,0.3-1.6,0.3c-0.7,0-1.2-0.1-1.7-0.4c-0.5-0.3-0.8-0.6-1-1.1c-0.2-0.5-0.3-1-0.3-1.6C66.2,28.4,66.3,27.8,66.5,27.4z"
			/>
		<path class="st0" d="M74.5,31.6c-0.3-0.1-0.5-0.3-0.6-0.6c-0.1-0.3-0.2-0.6-0.2-1.1v-2.8h-1.1v-0.7l1.2-0.4l0.6-1.3h0.7v1.3h1.8
			v1.1h-1.8v3.5h1.6v1.1h-1.1C75.1,31.8,74.7,31.7,74.5,31.6z"/>
	</g>
</g>
</svg>
